<?xml version="1.0" encoding="iso-8859-1"?>
<!-- Generator: Adobe Illustrator 19.0.0, SVG Export Plug-In . SVG Version: 6.00 Build 0)  -->
<svg xmlns="http://www.w3.org/2000/svg" xmlns:xlink="http://www.w3.org/1999/xlink" version="1.1" id="Capa_1" x="0px" y="0px" viewBox="0 0 536.973 536.973" style="enable-background:new 0 0 536.973 536.973;" xml:space="preserve" width="512" height="512">
<g>
	<path style="fill:#03232E;" d="M416.732,187.203c6.204,1.788,12.643,2.827,19.228,2.827c46.91,0,86.4-52.761,86.4-52.761   s-25.088-33.519-59.025-47.124L354.92,94.856L416.732,187.203z"/>
	<path style="fill:#07485E;" d="M402.168,135.602c16.351-3.204,33.334-9.659,45.794-22.119c33.17-33.17,23.787-98.401,23.787-98.401   s-65.231-9.384-98.401,23.787c-8.293,8.293-13.925,18.589-17.71,29.369v66.131L402.168,135.602z"/>
	<line style="fill:none;" x1="216.689" y1="0" x2="216.689" y2="536.973"/>
	<polygon style="fill:none;" points="216.689,128.414 216.689,128.414 14.613,215.932 216.689,128.414  "/>
	<path style="fill:#03232E;" d="M216.689,525.856L216.689,525.856c111.604,0,202.076-90.473,202.076-202.076v-22.796   l-222.092-20.016L216.689,525.856z"/>
	<path style="fill:#07485E;" d="M14.613,300.984v22.796c0,111.604,90.473,202.076,202.076,202.076h0V280.968L14.613,300.984z"/>
	<polygon style="fill:#FFBEAA;" points="196.673,195.916 216.689,300.984 418.766,300.984 418.766,215.932  "/>
	<polygon style="fill:#FFDECF;" points="216.689,195.916 14.613,215.932 14.613,300.984 216.689,300.984  "/>
	<polygon style="fill:#E1D3CE;" points="418.766,215.932 196.673,98.39 216.689,215.932  "/>
	<polygon style="fill:#FFF5F5;" points="216.689,108.398 14.613,215.932 14.613,215.932 216.689,215.932  "/>
	<path style="fill:#03232E;" d="M418.766,215.932c0-58.131-24.554-110.519-63.846-147.385   c-36.144-33.912-84.757-54.691-138.23-54.691h0L176,68.547l40.69,59.867l0,0L418.766,215.932z"/>
	<path style="fill:#07485E;" d="M216.689,13.856L216.689,13.856c-111.604,0-202.076,90.473-202.076,202.076l202.076-87.518V13.856z"/>
</g>















</svg>
