<?xml version="1.0"?>
<svg xmlns="http://www.w3.org/2000/svg" height="512px" viewBox="0 0 512 512" width="512px" class=""><g><path d="m512 15v90c0 8.402344-6.597656 15-15 15h-122v-120h122c8.402344 0 15 6.597656 15 15zm0 0" fill="#ff641a" data-original="#FF641A" class="" style="fill:#0091FF" data-old_color="#FF641A"/><path d="m360 120 10.78125 22.5-10.78125 22.5h-30l-11.25-20.15625 11.25-24.84375zm0 0" fill="#87a0af" data-original="#87A0AF"/><path d="m45 270v30l-22.5 7.96875-22.5-7.96875v-30l22.5-7.96875zm0 0" fill="#b4d2d7" data-original="#B4D2D7" class="active-path" style="fill:#0C282A" data-old_color="#020C0E"/><path d="m375 512c-8.289062 0-15-6.710938-15-15v-482c0-8.289062 6.710938-15 15-15s15 6.710938 15 15v482c0 8.289062-6.710938 15-15 15zm0 0" fill="#4a696f" data-original="#4A696F" class=""/><path d="m45 300h-45v22.5c0 12.300781 10.199219 22.5 22.5 22.5s22.5-10.199219 22.5-22.5zm0 0" fill="#b4d2d7" data-original="#B4D2D7" class="active-path" style="fill:#0C282A" data-old_color="#020C0E"/><path d="m0 180v90h45v-75c0-8.402344 6.597656-15 15-15s15 6.597656 15 15v270.199219l-9.902344 3.601562c-11.996094 4.199219-20.097656 15.601563-20.097656 28.199219 0 8.402344 6.597656 15 15 15h60c8.402344 0 15-6.597656 15-15v-152c0-8.402344 6.597656-15 15-15s15 6.597656 15 15v152c0 8.402344 6.597656 15 15 15h60c8.402344 0 15-6.597656 15-15 0-12.597656-8.101562-24-20.097656-28.199219l-9.902344-3.601562v-300.199219h105v-45h-270c-33 0-60 27-60 60zm0 0" fill="#e1ebf0" data-original="#E1EBF0" class="" style="fill:#E1EBF0"/><path d="m397.5 120h-37.5v45h37.5c12.300781 0 22.5-10.199219 22.5-22.5s-10.199219-22.5-22.5-22.5zm0 0" fill="#87a0af" data-original="#87A0AF"/><path d="m150 120h180v45h-105v300.199219l9.902344 3.601562c11.996094 4.199219 20.097656 15.601563 20.097656 28.199219 0 8.402344-6.597656 15-15 15h-60c-8.402344 0-15-6.597656-15-15v-152c0-8.402344-6.597656-15-15-15zm0 0" fill="#b4d2d7" data-original="#B4D2D7" class="active-path" style="fill:#0C282A" data-old_color="#020C0E"/><path d="m225 75v45h-150v-45c0-41.398438 33.601562-75 75-75s75 33.601562 75 75zm0 0" fill="#b4d2d7" data-original="#B4D2D7" class="active-path" style="fill:#0C282A" data-old_color="#020C0E"/><path d="m225 75v45h-75v-120c41.398438 0 75 33.601562 75 75zm0 0" fill="#87a0af" data-original="#87A0AF"/><path d="m175.5 70.5-30 30c-5.699219 6-15.300781 6-21 0-6-5.699219-6-15.300781 0-21l30-30c5.699219-6 15.300781-6 21 0 6 5.699219 6 15.300781 0 21zm0 0" fill="#e1ebf0" data-original="#E1EBF0" class="" style="fill:#E1EBF0"/><path d="m175.5 70.5-25.5 25.5v-42l4.5-4.5c5.699219-6 15.300781-6 21 0 6 5.699219 6 15.300781 0 21zm0 0" fill="#b4d2d7" data-original="#B4D2D7" class="active-path" style="fill:#0C282A" data-old_color="#020C0E"/><path d="m180 195c0 8.402344-6.597656 15-15 15h-30c-8.402344 0-15-6.597656-15-15s6.597656-15 15-15h30c8.402344 0 15 6.597656 15 15zm0 0" fill="#b4d2d7" data-original="#B4D2D7" class="active-path" style="fill:#0C282A" data-old_color="#020C0E"/><path d="m180 195c0 8.402344-6.597656 15-15 15h-15v-30h15c8.402344 0 15 6.597656 15 15zm0 0" fill="#87a0af" data-original="#87A0AF"/><path d="m115.257812 240.769531c7.859376-2.621093 16.351563 1.628907 18.972657 9.488281 2.621093 7.859376-1.628907 16.351563-9.488281 18.972657-7.855469 2.621093-16.351563-1.628907-18.972657-9.488281-2.621093-7.859376 1.628907-16.351563 9.488281-18.972657" fill="#b4d2d7" data-original="#B4D2D7" class="active-path" style="fill:#0C282A" data-old_color="#020C0E"/><path d="m175.257812 240.769531c7.859376-2.621093 16.351563 1.628907 18.972657 9.488281 2.621093 7.859376-1.628907 16.351563-9.488281 18.972657-7.855469 2.621093-16.351563-1.628907-18.972657-9.488281-2.621093-7.859376 1.628907-16.351563 9.488281-18.972657" fill="#87a0af" data-original="#87A0AF"/></g> </svg>
