<?xml version="1.0"?>
<svg xmlns="http://www.w3.org/2000/svg" xmlns:xlink="http://www.w3.org/1999/xlink" version="1.1" id="Layer_1" x="0px" y="0px" viewBox="0 0 480.606 480.606" style="enable-background:new 0 0 480.606 480.606;" xml:space="preserve" data-lt-installed="true" width="512px" height="512px"><g><g>
	<path d="M293.191,108.294c-24.659-24.659-57.491-38.24-92.449-38.24s-67.79,13.581-92.449,38.24l21.213,21.213   c18.993-18.993,44.292-29.453,71.236-29.453s52.243,10.46,71.236,29.453c18.993,18.993,29.453,44.292,29.453,71.236   s-10.46,52.243-29.453,71.236l21.213,21.213c24.659-24.659,38.24-57.491,38.24-92.449S317.851,132.953,293.191,108.294z" data-original="#000000" class="active-path" data-old_color="#ffffff" fill="#ffffff"/>
	<path d="M480.606,459.394L352.832,331.619c30.306-35.168,48.654-80.918,48.654-130.876C401.485,90.053,311.433,0,200.743,0   S0,90.053,0,200.743s90.053,200.743,200.743,200.743c49.958,0,95.708-18.348,130.876-48.654l127.775,127.775L480.606,459.394z    M30,200.743C30,106.595,106.595,30,200.743,30s170.743,76.595,170.743,170.743s-76.595,170.743-170.743,170.743   S30,294.891,30,200.743z" data-original="#000000" class="active-path" data-old_color="#ffffff" fill="#ffffff"/>
</g></g> </svg>
